<?xml version="1.0" standalone="no"?>
<!DOCTYPE svg PUBLIC "-//W3C//DTD SVG 20010904//EN"
 "http://www.w3.org/TR/2001/REC-SVG-20010904/DTD/svg10.dtd">
<svg version="1.0" xmlns="http://www.w3.org/2000/svg"
 width="256.000000pt" height="256.000000pt" viewBox="0 0 256.000000 256.000000"
 preserveAspectRatio="xMidYMid meet">
<metadata>
Created by potrace 1.14, written by Peter Selinger 2001-2017
</metadata>
<g transform="translate(0.000000,256.000000) scale(0.100000,-0.100000)"
fill="#000000" stroke="none">
<path d="M699 2106 c-2 -2 -42 -7 -89 -10 -143 -12 -231 -31 -299 -65 -44 -23
-106 -90 -126 -137 -46 -109 -60 -256 -59 -619 0 -367 8 -456 55 -579 53 -142
168 -201 439 -224 112 -9 1186 -9 1315 0 88 7 137 14 222 33 46 11 112 44 148
77 38 33 90 129 99 185 3 15 10 60 17 98 22 137 19 704 -6 879 -30 217 -139
317 -370 342 -27 3 -61 8 -75 11 -27 6 -1265 15 -1271 9z"/>
</g>
</svg>
